<svg xmlns="http://www.w3.org/2000/svg" width="596" height="492" viewBox="0 0 596 492">
<g>
<path d="M 424.56 263.91 C420.74,264.02 417.37,264.20 417.06,264.31 C415.27,264.92 338.28,263.36 337.25,262.69 C336.56,262.25 336.00,261.18 336.00,260.31 C336.00,258.61 341.74,246.81 342.97,246.00 C343.38,245.73 344.46,244.06 345.36,242.30 C346.26,240.54 348.29,237.17 349.86,234.80 C353.16,229.85 357.43,222.63 359.20,219.00 C359.87,217.62 362.39,213.63 364.80,210.13 C367.20,206.63 370.06,201.68 371.15,199.13 C372.24,196.58 374.39,193.15 375.94,191.50 C377.49,189.85 379.95,186.59 381.39,184.25 C383.01,181.64 384.77,180.00 385.95,180.00 C388.54,180.00 393.04,185.84 403.27,202.50 C408.00,210.20 412.80,217.99 413.93,219.82 C415.07,221.64 416.00,223.60 416.00,224.16 C416.00,224.72 416.92,226.38 418.05,227.84 C422.54,233.66 430.54,246.80 432.76,252.00 C435.79,259.09 436.74,261.06 436.13,261.89 C435.84,262.30 435.17,262.43 434.20,262.77 C432.71,263.28 428.38,263.79 424.56,263.91 Z" fill="rgba(35,177,224,1)"/>
<path d="M 0.31 491.25 C11.98,470.73 298.43,0.34 299.03,0.70 L 299.03 0.70 C300.02,1.80 595.00,491.00 595.00,491.56 C595.00,491.80 461.10,492.00 297.44,492.00 C133.93,492.00 0.31,491.66 0.31,491.25 ZM 31.25 474.34 C31.94,474.62 89.48,474.88 159.13,474.92 C275.69,474.99 285.86,474.87 287.13,473.35 C288.20,472.06 288.57,465.92 288.80,445.70 C288.97,430.39 288.71,419.31 288.16,418.76 C286.98,417.58 247.14,417.11 244.75,418.24 C243.50,418.83 243.00,420.25 243.00,423.21 C243.00,425.17 243.27,426.64 242.75,427.75 C241.07,431.33 231.03,431.00 176.10,430.98 C141.12,430.98 111.88,430.57 111.11,430.09 C109.25,428.91 110.41,424.49 113.56,420.74 C114.90,419.15 116.00,417.24 116.00,416.50 C116.00,415.76 117.06,413.88 118.36,412.33 C119.66,410.77 121.05,408.47 121.44,407.22 C121.83,405.96 123.35,403.83 124.82,402.47 L 127.48 400.00 L 206.02 400.00 C275.48,400.00 284.81,399.82 286.78,398.44 L 289.00 396.89 L 289.00 340.64 C289.00,298.23 288.70,284.10 287.80,283.20 C286.89,282.29 269.69,282.00 216.52,282.00 C152.65,282.00 144.59,281.75 141.89,285.43 C141.32,286.20 141.00,287.15 140.43,288.32 C137.93,293.50 135.57,297.45 133.22,300.45 C132.00,302.00 131.00,303.81 131.00,304.48 C131.00,305.15 130.14,306.47 129.09,307.42 C128.04,308.37 126.89,310.32 126.53,311.76 C126.16,313.19 124.89,315.58 123.69,317.06 C122.48,318.54 120.60,321.25 119.50,323.08 C118.40,324.91 116.99,327.25 116.37,328.29 C115.74,329.32 114.73,330.67 114.12,331.28 C112.35,333.05 112.82,336.83 114.93,337.96 C116.09,338.58 125.37,339.00 138.07,339.00 C157.77,339.00 159.50,338.85 162.62,336.93 C164.47,335.78 166.72,333.29 167.62,331.39 C168.52,329.49 170.09,327.49 171.09,326.95 C173.10,325.88 240.29,325.44 241.99,326.49 C242.59,326.86 243.00,332.58 243.00,340.58 L 243.00 354.05 L 240.36 355.05 C238.69,355.69 213.09,356.01 169.85,355.92 C107.91,355.81 99.61,355.56 97.01,359.29 C96.46,360.09 96.16,361.07 95.66,362.27 C94.92,364.05 93.57,366.12 92.65,366.87 C91.74,367.63 91.00,368.77 91.00,369.41 C91.00,370.53 85.99,378.94 82.31,383.98 C81.31,385.35 79.92,387.60 79.21,388.98 C77.83,391.68 74.68,396.90 71.59,401.60 C70.54,403.19 68.63,406.10 67.34,408.05 C66.05,410.01 65.00,412.11 65.00,412.73 C65.00,413.34 63.94,415.12 62.64,416.67 C61.34,418.23 59.98,420.45 59.61,421.62 C59.25,422.78 58.06,424.54 56.97,425.52 C55.89,426.51 55.00,428.07 55.00,429.00 C55.00,429.93 54.11,431.49 53.03,432.48 C51.94,433.46 50.76,435.22 50.41,436.38 C50.06,437.55 48.96,439.40 47.96,440.50 C46.97,441.60 44.50,445.65 42.48,449.50 C40.46,453.35 37.95,457.43 36.90,458.56 C35.86,459.70 35.00,460.98 35.00,461.42 C35.00,461.86 33.88,463.55 32.50,465.18 C29.85,468.33 29.15,473.49 31.25,474.34 ZM 309.87 473.35 C311.06,474.78 313.81,475.00 330.55,475.00 L 349.86 475.00 L 352.01 471.99 C354.06,469.11 354.16,467.80 354.33,443.74 L 354.50 418.50 L 480.97 417.99 L 483.73 422.15 C485.25,424.44 487.27,427.48 488.22,428.91 C489.17,430.33 490.85,433.16 491.96,435.19 C494.04,439.00 497.60,444.62 500.70,449.00 C501.67,450.37 503.32,453.07 504.35,455.00 C508.80,463.27 510.23,465.69 512.61,469.00 C514.00,470.92 516.12,473.05 517.32,473.71 C520.38,475.42 563.10,475.50 564.80,473.80 C566.87,471.73 566.11,467.64 562.99,464.00 C561.34,462.08 559.71,459.60 559.36,458.50 C559.01,457.40 557.66,455.23 556.36,453.67 C555.06,452.12 554.00,450.37 554.00,449.79 C554.00,449.21 551.08,444.37 547.52,439.03 C543.96,433.70 540.47,428.01 539.77,426.40 C539.07,424.78 537.70,422.35 536.71,420.98 C532.63,415.31 529.04,409.43 529.02,408.38 C529.01,407.77 527.99,406.00 526.75,404.45 C523.97,400.96 520.56,395.48 518.71,391.50 C517.94,389.85 516.57,387.88 515.65,387.13 C514.74,386.37 514.00,385.17 514.00,384.45 C514.00,383.74 512.94,381.88 511.65,380.33 C509.23,377.41 507.27,374.06 504.44,368.00 C503.54,366.08 502.07,363.68 501.18,362.68 C499.00,360.22 495.48,354.41 493.06,349.25 C491.97,346.91 490.61,345.00 490.04,345.00 C489.47,345.00 489.00,344.46 489.00,343.80 C489.00,343.15 487.95,341.01 486.66,339.05 C485.37,337.10 482.33,332.22 479.91,328.20 C477.48,324.19 474.27,319.01 472.77,316.70 C471.26,314.39 469.48,311.38 468.81,310.00 C468.14,308.62 466.39,305.70 464.93,303.50 C463.47,301.30 460.88,297.25 459.18,294.50 C457.47,291.75 454.90,287.81 453.47,285.75 L 450.87 282.00 L 380.56 282.00 C322.22,282.00 310.05,282.23 309.11,283.37 C308.27,284.38 308.04,309.48 308.23,378.22 C308.45,455.69 308.74,471.98 309.87,473.35 ZM 159.25 262.97 C160.49,263.47 171.69,263.90 184.14,263.94 L 206.79 264.00 L 209.89 261.10 C211.60,259.50 213.00,257.53 213.00,256.72 C213.00,255.91 213.71,254.66 214.57,253.94 C215.44,253.22 217.04,251.03 218.12,249.07 C219.21,247.11 221.64,243.02 223.51,240.00 C225.39,236.98 227.36,233.60 227.88,232.50 C228.40,231.40 229.99,228.95 231.41,227.06 C232.84,225.16 234.00,223.06 234.00,222.39 C234.00,221.71 235.55,220.20 237.45,219.03 C240.63,217.06 242.09,216.92 256.35,217.14 L 271.80 217.37 L 274.77 220.44 C279.40,225.21 279.62,227.34 276.08,232.70 C274.38,235.25 273.00,237.87 273.00,238.52 C273.00,239.16 272.10,240.50 271.00,241.50 C269.90,242.50 269.00,243.85 269.00,244.52 C269.00,245.18 267.76,247.35 266.25,249.34 C262.48,254.31 259.00,259.94 259.00,261.09 C259.00,263.32 265.40,264.00 286.46,264.00 L 308.79 264.00 L 311.65 260.65 C314.34,257.48 315.67,255.45 320.55,246.99 C322.50,243.61 327.55,235.67 332.65,227.95 C335.69,223.35 335.63,219.94 332.46,216.96 C331.00,215.59 330.04,213.71 330.21,212.54 C330.45,210.85 331.47,210.40 336.11,209.90 C339.19,209.57 342.22,208.98 342.83,208.60 C343.45,208.22 345.60,205.34 347.61,202.21 C349.62,199.07 352.11,195.28 353.13,193.79 C354.16,192.30 355.00,190.67 355.00,190.18 C355.00,189.68 356.24,187.67 357.75,185.70 C359.26,183.74 361.85,179.81 363.50,176.97 C365.15,174.13 367.51,170.55 368.75,169.01 C369.99,167.47 371.00,165.54 371.00,164.73 C371.00,163.91 371.67,162.68 372.50,162.00 C375.62,159.41 373.80,153.32 366.67,142.50 C365.21,140.30 363.61,138.00 363.11,137.39 C362.60,136.78 361.24,134.53 360.08,132.39 C357.94,128.42 356.72,126.36 354.02,122.10 C349.90,115.60 347.92,112.16 346.18,108.49 C345.13,106.28 343.54,103.86 342.64,103.11 C341.74,102.37 341.00,101.20 341.00,100.52 C341.00,99.83 339.65,97.58 338.00,95.50 C336.35,93.42 335.00,91.18 335.00,90.52 C335.00,89.85 334.10,88.50 333.00,87.50 C331.90,86.50 331.00,85.28 331.00,84.78 C331.00,84.27 329.73,81.98 328.18,79.68 C326.63,77.38 323.69,72.57 321.66,69.00 C319.62,65.43 316.17,59.64 313.98,56.15 C311.79,52.66 310.00,49.62 310.00,49.39 C310.00,49.17 308.65,47.12 307.00,44.84 C305.35,42.56 304.00,40.13 304.00,39.44 C304.00,38.05 298.42,33.00 296.87,33.00 C296.34,33.00 295.25,34.54 294.46,36.43 C293.68,38.32 292.59,40.14 292.05,40.47 C291.50,40.81 288.99,44.89 286.45,49.54 C283.91,54.19 281.46,58.00 281.00,58.00 C280.53,58.00 279.65,59.52 279.04,61.38 C278.43,63.24 277.04,65.56 275.96,66.53 C274.88,67.51 274.00,68.73 274.00,69.25 C274.00,70.24 266.99,82.12 265.89,83.00 C265.55,83.28 264.29,85.30 263.10,87.50 C261.09,91.20 259.76,93.46 254.03,103.00 C250.01,109.68 247.59,113.54 243.07,120.47 C240.58,124.30 237.85,128.65 237.02,130.13 C236.18,131.61 234.46,134.55 233.18,136.66 C227.47,146.12 225.92,148.78 223.61,153.06 C222.26,155.57 220.45,158.21 219.58,158.94 C218.71,159.66 218.00,160.83 218.00,161.55 C218.00,162.26 216.96,164.12 215.68,165.67 C214.41,167.23 212.79,169.93 212.09,171.68 C211.39,173.43 210.18,175.10 209.41,175.40 C208.63,175.69 208.00,176.59 208.00,177.39 C208.00,178.19 206.93,180.12 205.61,181.68 C204.30,183.24 202.49,186.09 201.58,188.01 C198.62,194.27 196.77,197.47 194.94,199.50 C193.95,200.60 192.64,202.62 192.03,204.00 C190.90,206.57 189.88,208.27 177.00,229.02 C172.88,235.67 167.21,244.92 164.42,249.59 C161.62,254.25 158.81,258.59 158.17,259.23 C156.44,260.96 156.73,261.96 159.25,262.97 ZM 424.56 263.91 C428.38,263.79 432.71,263.28 434.20,262.77 C435.17,262.43 435.84,262.30 436.13,261.89 C436.74,261.06 435.79,259.09 432.76,252.00 C430.54,246.80 422.54,233.66 418.05,227.84 C416.92,226.38 416.00,224.72 416.00,224.16 C416.00,223.60 415.07,221.64 413.93,219.82 C412.80,217.99 408.00,210.20 403.27,202.50 C393.04,185.84 388.54,180.00 385.95,180.00 C384.77,180.00 383.01,181.64 381.39,184.25 C379.95,186.59 377.49,189.85 375.94,191.50 C374.39,193.15 372.24,196.58 371.15,199.13 C370.06,201.68 367.20,206.63 364.80,210.13 C362.39,213.63 359.87,217.62 359.20,219.00 C357.43,222.63 353.16,229.85 349.86,234.80 C348.29,237.17 346.26,240.54 345.36,242.30 C344.46,244.06 343.38,245.73 342.97,246.00 C341.74,246.81 336.00,258.61 336.00,260.31 C336.00,261.18 336.56,262.25 337.25,262.69 C338.28,263.36 415.27,264.92 417.06,264.31 C417.37,264.20 420.74,264.02 424.56,263.91 ZM 374.48 472.20 L 376.90 474.63 L 429.20 474.50 C478.72,474.37 481.71,474.26 485.49,472.43 C487.68,471.37 489.63,469.68 489.82,468.69 C490.01,467.70 488.53,464.32 486.52,461.19 C484.52,458.06 480.72,452.12 478.08,448.00 C475.44,443.88 472.06,439.38 470.56,438.00 L 467.84 435.50 L 377.18 434.94 L 374.35 437.38 C371.59,439.75 371.51,440.12 371.15,451.42 C370.71,465.39 371.29,469.02 374.48,472.20 ZM 451.57 372.94 C450.66,373.70 435.95,374.11 404.62,374.27 C379.53,374.40 358.44,374.34 357.75,374.13 C354.35,373.14 354.00,370.77 354.00,348.87 C354.00,334.17 354.36,326.90 355.10,326.44 C356.88,325.34 425.45,325.96 425.85,327.09 C426.04,327.63 427.21,329.29 428.46,330.79 C429.71,332.28 431.07,334.62 431.49,336.00 C431.91,337.38 432.91,339.17 433.71,340.00 C435.17,341.49 436.42,343.53 443.55,356.00 C445.60,359.58 448.08,363.40 449.07,364.50 C451.96,367.72 453.12,371.65 451.57,372.94 ZM 313.07 172.96 C311.90,173.59 302.35,174.00 289.03,174.00 C270.31,174.00 266.85,173.77 266.36,172.50 C265.73,170.84 265.94,170.30 269.48,164.50 C270.83,162.30 272.59,159.11 273.41,157.42 C274.22,155.73 275.61,153.74 276.50,153.00 C277.39,152.26 278.78,150.06 279.60,148.12 C280.41,146.17 281.72,143.87 282.50,143.00 C283.28,142.14 285.34,138.75 287.07,135.47 C288.80,132.18 291.04,128.60 292.04,127.50 C293.03,126.40 294.16,124.26 294.53,122.75 C295.95,117.04 299.93,119.78 306.52,131.00 C308.62,134.57 311.38,139.18 312.67,141.23 C313.95,143.28 315.00,145.20 315.00,145.49 C315.00,145.78 316.35,147.88 318.00,150.16 C320.02,152.95 321.00,155.48 320.99,157.90 C320.98,162.01 316.06,171.36 313.07,172.96 Z" fill="rgba(10,9,9,1)"/>
<path d="M 374.48 472.20 C371.29,469.02 370.71,465.39 371.15,451.42 C371.51,440.12 371.59,439.75 374.35,437.38 L 377.18 434.94 L 467.84 435.50 L 470.56 438.00 C472.06,439.38 475.44,443.88 478.08,448.00 C480.72,452.12 484.52,458.06 486.52,461.19 C488.53,464.32 490.01,467.70 489.82,468.69 C489.63,469.68 487.68,471.37 485.49,472.43 C481.71,474.26 478.72,474.37 429.20,474.50 L 376.90 474.63 Z" fill="rgba(253,2,2,1)"/>
<path d="M 31.25 474.34 C29.15,473.49 29.85,468.33 32.50,465.18 C33.88,463.55 35.00,461.86 35.00,461.42 C35.00,460.98 35.86,459.70 36.90,458.56 C37.95,457.43 40.46,453.35 42.48,449.50 C44.50,445.65 46.97,441.60 47.96,440.50 C48.96,439.40 50.06,437.55 50.41,436.38 C50.76,435.22 51.94,433.46 53.03,432.48 C54.11,431.49 55.00,429.93 55.00,429.00 C55.00,428.07 55.89,426.51 56.97,425.52 C58.06,424.54 59.25,422.78 59.61,421.62 C59.98,420.45 61.34,418.23 62.64,416.67 C63.94,415.12 65.00,413.34 65.00,412.73 C65.00,412.11 66.05,410.01 67.34,408.05 C68.63,406.10 70.54,403.19 71.59,401.60 C74.68,396.90 77.83,391.68 79.21,388.98 C79.92,387.60 81.31,385.35 82.31,383.98 C85.99,378.94 91.00,370.53 91.00,369.41 C91.00,368.77 91.74,367.63 92.65,366.87 C93.57,366.12 94.92,364.05 95.66,362.27 C98.51,355.45 94.64,355.78 169.85,355.92 C213.09,356.01 238.69,355.69 240.36,355.05 L 243.00 354.05 L 243.00 340.58 C243.00,332.58 242.59,326.86 241.99,326.49 C240.29,325.44 173.10,325.88 171.09,326.95 C170.09,327.49 168.52,329.49 167.62,331.39 C166.72,333.29 164.47,335.78 162.62,336.93 C159.50,338.85 157.77,339.00 138.07,339.00 C125.37,339.00 116.09,338.58 114.93,337.96 C112.82,336.83 112.35,333.05 114.12,331.28 C114.73,330.67 115.74,329.32 116.37,328.29 C116.99,327.25 118.40,324.91 119.50,323.08 C120.60,321.25 122.48,318.54 123.69,317.06 C124.89,315.58 126.16,313.19 126.53,311.76 C126.89,310.32 128.04,308.37 129.09,307.42 C130.14,306.47 131.00,305.15 131.00,304.48 C131.00,303.81 132.00,302.00 133.22,300.45 C135.57,297.45 137.93,293.50 140.43,288.32 C143.67,281.63 139.18,282.00 216.52,282.00 C269.69,282.00 286.89,282.29 287.80,283.20 C288.70,284.10 289.00,298.23 289.00,340.64 L 289.00 396.89 L 286.78 398.44 C284.81,399.82 275.48,400.00 206.02,400.00 L 127.48 400.00 L 124.82 402.47 C123.35,403.83 121.83,405.96 121.44,407.22 C121.05,408.47 119.66,410.77 118.36,412.33 C117.06,413.88 116.00,415.76 116.00,416.50 C116.00,417.24 114.90,419.15 113.56,420.74 C110.41,424.49 109.25,428.91 111.11,430.09 C111.88,430.57 141.12,430.98 176.10,430.98 C247.89,431.00 243.00,431.57 243.00,423.21 C243.00,420.25 243.50,418.83 244.75,418.24 C247.14,417.11 286.98,417.58 288.16,418.76 C288.71,419.31 288.97,430.39 288.80,445.70 C288.57,465.92 288.20,472.06 287.13,473.35 C285.86,474.87 275.69,474.99 159.13,474.92 C89.48,474.88 31.94,474.62 31.25,474.34 ZM 309.87 473.35 C308.74,471.98 308.45,455.69 308.23,378.22 C308.04,309.48 308.27,284.38 309.11,283.37 C310.05,282.23 322.22,282.00 380.56,282.00 L 450.87 282.00 L 453.47 285.75 C454.90,287.81 457.47,291.75 459.18,294.50 C460.88,297.25 463.47,301.30 464.93,303.50 C466.39,305.70 468.14,308.62 468.81,310.00 C469.48,311.38 471.26,314.39 472.77,316.70 C474.27,319.01 477.48,324.19 479.91,328.20 C482.33,332.22 485.37,337.10 486.66,339.05 C487.95,341.01 489.00,343.15 489.00,343.80 C489.00,344.46 489.47,345.00 490.04,345.00 C490.61,345.00 491.97,346.91 493.06,349.25 C495.48,354.41 499.00,360.22 501.18,362.68 C502.07,363.68 503.54,366.08 504.44,368.00 C507.27,374.06 509.23,377.41 511.65,380.33 C512.94,381.88 514.00,383.74 514.00,384.45 C514.00,385.17 514.74,386.37 515.65,387.13 C516.57,387.88 517.94,389.85 518.71,391.50 C520.56,395.48 523.97,400.96 526.75,404.45 C527.99,406.00 529.01,407.77 529.02,408.38 C529.04,409.43 532.63,415.31 536.71,420.98 C537.70,422.35 539.07,424.78 539.77,426.40 C540.47,428.01 543.96,433.70 547.52,439.03 C551.08,444.37 554.00,449.21 554.00,449.79 C554.00,450.37 555.06,452.12 556.36,453.67 C557.66,455.23 559.01,457.40 559.36,458.50 C559.71,459.60 561.34,462.08 562.99,464.00 C566.11,467.64 566.87,471.73 564.80,473.80 C563.10,475.50 520.38,475.42 517.32,473.71 C516.12,473.05 514.00,470.92 512.61,469.00 C510.23,465.69 508.80,463.27 504.35,455.00 C503.32,453.07 501.67,450.37 500.70,449.00 C497.60,444.62 494.04,439.00 491.96,435.19 C490.85,433.16 489.17,430.33 488.22,428.91 C487.27,427.48 485.25,424.44 483.73,422.15 L 480.97 417.99 L 417.73 418.24 L 354.50 418.50 L 354.33 443.74 C354.16,467.80 354.06,469.11 352.01,471.99 L 349.86 475.00 L 330.55 475.00 C313.81,475.00 311.06,474.78 309.87,473.35 ZM 451.57 372.94 C453.12,371.65 451.96,367.72 449.07,364.50 C448.08,363.40 445.60,359.58 443.55,356.00 C436.42,343.53 435.17,341.49 433.71,340.00 C432.91,339.17 431.91,337.38 431.49,336.00 C431.07,334.62 429.71,332.28 428.46,330.79 C427.21,329.29 426.04,327.63 425.85,327.09 C425.45,325.96 356.88,325.34 355.10,326.44 C354.36,326.90 354.00,334.17 354.00,348.87 C354.00,370.77 354.35,373.14 357.75,374.13 C358.44,374.34 379.53,374.40 404.62,374.27 C435.95,374.11 450.66,373.70 451.57,372.94 ZM 159.25 262.97 C156.73,261.96 156.44,260.96 158.17,259.23 C158.81,258.59 161.62,254.25 164.42,249.59 C167.21,244.92 172.88,235.67 177.00,229.02 C189.88,208.27 190.90,206.57 192.03,204.00 C192.64,202.62 193.95,200.60 194.94,199.50 C196.77,197.47 198.62,194.27 201.58,188.01 C202.49,186.09 204.30,183.24 205.61,181.68 C206.93,180.12 208.00,178.19 208.00,177.39 C208.00,176.59 208.63,175.69 209.41,175.40 C210.18,175.10 211.39,173.43 212.09,171.68 C212.79,169.93 214.41,167.23 215.68,165.67 C216.96,164.12 218.00,162.26 218.00,161.55 C218.00,160.83 218.71,159.66 219.58,158.94 C220.45,158.21 222.26,155.57 223.61,153.06 C225.92,148.78 227.47,146.12 233.18,136.66 C234.46,134.55 236.18,131.61 237.02,130.13 C237.85,128.65 240.58,124.30 243.07,120.47 C247.59,113.54 250.01,109.68 254.03,103.00 C259.76,93.46 261.09,91.20 263.10,87.50 C264.29,85.30 265.55,83.28 265.89,83.00 C266.99,82.12 274.00,70.24 274.00,69.25 C274.00,68.73 274.88,67.51 275.96,66.53 C277.04,65.56 278.43,63.24 279.04,61.38 C279.65,59.52 280.53,58.00 281.00,58.00 C281.46,58.00 283.91,54.19 286.45,49.54 C288.99,44.89 291.50,40.81 292.05,40.47 C292.59,40.14 293.68,38.32 294.46,36.43 C295.25,34.54 296.34,33.00 296.87,33.00 C298.42,33.00 304.00,38.05 304.00,39.44 C304.00,40.13 305.35,42.56 307.00,44.84 C308.65,47.12 310.00,49.17 310.00,49.39 C310.00,49.62 311.79,52.66 313.98,56.15 C316.17,59.64 319.62,65.43 321.66,69.00 C323.69,72.57 326.63,77.38 328.18,79.68 C329.73,81.98 331.00,84.27 331.00,84.78 C331.00,85.28 331.90,86.50 333.00,87.50 C334.10,88.50 335.00,89.85 335.00,90.52 C335.00,91.18 336.35,93.42 338.00,95.50 C339.65,97.58 341.00,99.83 341.00,100.52 C341.00,101.20 341.74,102.37 342.64,103.11 C343.54,103.86 345.13,106.28 346.18,108.49 C347.92,112.16 349.90,115.60 354.02,122.10 C356.72,126.36 357.94,128.42 360.08,132.39 C361.24,134.53 362.60,136.78 363.11,137.39 C363.61,138.00 365.21,140.30 366.67,142.50 C373.80,153.32 375.62,159.41 372.50,162.00 C371.67,162.68 371.00,163.91 371.00,164.73 C371.00,165.54 369.99,167.47 368.75,169.01 C367.51,170.55 365.15,174.13 363.50,176.97 C361.85,179.81 359.26,183.74 357.75,185.70 C356.24,187.67 355.00,189.68 355.00,190.18 C355.00,190.67 354.16,192.30 353.13,193.79 C352.11,195.28 349.62,199.07 347.61,202.21 C345.60,205.34 343.45,208.22 342.83,208.60 C342.22,208.98 339.19,209.57 336.11,209.90 C331.47,210.40 330.45,210.85 330.21,212.54 C330.04,213.71 331.00,215.59 332.46,216.96 C335.63,219.94 335.69,223.35 332.65,227.95 C327.55,235.67 322.50,243.61 320.55,246.99 C315.67,255.45 314.34,257.48 311.65,260.65 L 308.79 264.00 L 286.46 264.00 C265.40,264.00 259.00,263.32 259.00,261.09 C259.00,259.94 262.48,254.31 266.25,249.34 C267.76,247.35 269.00,245.18 269.00,244.52 C269.00,243.85 269.90,242.50 271.00,241.50 C272.10,240.50 273.00,239.16 273.00,238.52 C273.00,237.87 274.38,235.25 276.08,232.70 C279.62,227.34 279.40,225.21 274.77,220.44 L 271.80 217.37 L 256.35 217.14 C242.09,216.92 240.63,217.06 237.45,219.03 C235.55,220.20 234.00,221.71 234.00,222.39 C234.00,223.06 232.84,225.16 231.41,227.06 C229.99,228.95 228.40,231.40 227.88,232.50 C227.36,233.60 225.39,236.98 223.51,240.00 C221.64,243.02 219.21,247.11 218.12,249.07 C217.04,251.03 215.44,253.22 214.57,253.94 C213.71,254.66 213.00,255.91 213.00,256.72 C213.00,257.53 211.60,259.50 209.89,261.10 L 206.79 264.00 L 184.14 263.94 C171.69,263.90 160.49,263.47 159.25,262.97 ZM 313.07 172.96 C316.06,171.36 320.98,162.01 320.99,157.90 C321.00,155.48 320.02,152.95 318.00,150.16 C316.35,147.88 315.00,145.78 315.00,145.49 C315.00,145.20 313.95,143.28 312.67,141.23 C311.38,139.18 308.62,134.57 306.52,131.00 C299.93,119.78 295.95,117.04 294.53,122.75 C294.16,124.26 293.03,126.40 292.04,127.50 C291.04,128.60 288.80,132.18 287.07,135.47 C285.34,138.75 283.28,142.14 282.50,143.00 C281.72,143.87 280.41,146.17 279.60,148.12 C278.78,150.06 277.39,152.26 276.50,153.00 C275.61,153.74 274.22,155.73 273.41,157.42 C272.59,159.11 270.83,162.30 269.48,164.50 C265.94,170.30 265.73,170.84 266.36,172.50 C266.85,173.77 270.31,174.00 289.03,174.00 C302.35,174.00 311.90,173.59 313.07,172.96 Z" fill="rgba(254,254,254,1)"/>
</g>
</svg>